<?xml version="1.0" encoding="UTF-8"?>
<svg version="1.1" xmlns="http://www.w3.org/2000/svg" width="64" height="64">
<path d="M0 0 C4.63541197 2.54947658 7.88683865 6.66012737 11.41601562 10.53515625 C12.01220703 11.16550781 12.60839844 11.79585937 13.22265625 12.4453125 C13.75640869 13.03070801 14.29016113 13.61610352 14.84008789 14.21923828 C16.44157844 15.5999109 16.44157844 15.5999109 18.51733398 15.18310547 C20.75957056 14.34612597 20.75957056 14.34612597 23.5 12.375 C29.5 8.375 29.5 8.375 31.5 7.375 C31.5 11.665 31.5 15.955 31.5 20.375 C30.84 20.375 30.18 20.375 29.5 20.375 C29.51160156 21.03886719 29.52320313 21.70273437 29.53515625 22.38671875 C29.62478032 31.15707381 29.62478032 31.15707381 28.5 35.375 C27.84 35.375 27.18 35.375 26.5 35.375 C26.70625 36.138125 26.9125 36.90125 27.125 37.6875 C27.5 40.375 27.5 40.375 25.5 43.375 C21.63110646 47.24389354 21.63110646 47.24389354 18.57839966 47.59773254 C17.85401703 47.58457504 17.1296344 47.57141754 16.38330078 47.55786133 C15.14654099 47.54212822 15.14654099 47.54212822 13.88479614 47.52607727 C12.99726654 47.50329208 12.10973694 47.4805069 11.1953125 47.45703125 C10.27918182 47.43912033 9.36305115 47.42120941 8.41915894 47.40275574 C6.48065535 47.36155859 4.54225988 47.31497539 2.60400391 47.26342773 C-0.35637138 47.1879748 -3.31639755 47.13885468 -6.27734375 47.09179688 C-8.16149586 47.04847762 -10.04561307 47.00360659 -11.9296875 46.95703125 C-13.25490921 46.9380352 -13.25490921 46.9380352 -14.60690308 46.9186554 C-19.31640681 46.76985821 -22.74036242 46.53513285 -26.5 43.375 C-28.09253537 38.5973939 -29.01297876 33.67128447 -30.0625 28.75 C-30.29646484 27.69425781 -30.53042969 26.63851562 -30.77148438 25.55078125 C-32.08959346 19.34836705 -32.75916349 13.71453767 -32.5 7.375 C-28.93242734 9.15878633 -25.56836905 11.44448502 -22.5625 14.0625 C-20.63257424 15.59419425 -20.63257424 15.59419425 -18.57592773 15.15673828 C-16.10393535 14.22585276 -14.99267494 13.12844468 -13.22265625 11.1796875 C-12.62646484 10.54675781 -12.03027344 9.91382813 -11.41601562 9.26171875 C-10.1782265 7.9182806 -8.9464518 6.56927653 -7.72070312 5.21484375 C-3.23819954 0.48572993 -3.23819954 0.48572993 0 0 Z " fill="#F3F3F3" transform="translate(32.5,8.625)"/>
<path d="" fill="#000000" transform="translate(0,0)"/>
<path d="" fill="#000000" transform="translate(0,0)"/>
<path d="" fill="#000000" transform="translate(0,0)"/>
<path d="" fill="#000000" transform="translate(0,0)"/>
<path d="" fill="#000000" transform="translate(0,0)"/>
<path d="" fill="#000000" transform="translate(0,0)"/>
<path d="" fill="#000000" transform="translate(0,0)"/>
<path d="" fill="#000000" transform="translate(0,0)"/>
<path d="" fill="#000000" transform="translate(0,0)"/>
<path d="" fill="#000000" transform="translate(0,0)"/>
<path d="" fill="#000000" transform="translate(0,0)"/>
<path d="" fill="#000000" transform="translate(0,0)"/>
<path d="" fill="#000000" transform="translate(0,0)"/>
<path d="" fill="#000000" transform="translate(0,0)"/>
</svg>
